<svg xmlns="http://www.w3.org/2000/svg" xmlns:xlink="http://www.w3.org/1999/xlink" viewBox="0 0 171.04 191.26"><defs><style>.cls-1{fill:#ffc400;}.cls-2{fill:url(#linear-gradient);}.cls-3{fill:url(#linear-gradient-2);}.cls-4{fill:#0049b0;}.cls-5{fill:#b2d4ff;}</style><linearGradient id="linear-gradient" x1="238.42" y1="-29.99" x2="335.08" y2="-126.64" gradientTransform="translate(-211.3 82.1) rotate(12.21)" gradientUnits="userSpaceOnUse"><stop offset="0" stop-color="#0065ff"/><stop offset="1" stop-color="#2684ff"/></linearGradient><linearGradient id="linear-gradient-2" x1="67.19" y1="127.94" x2="171.04" y2="127.94" gradientUnits="userSpaceOnUse"><stop offset="0" stop-color="#0052cc"/><stop offset="1" stop-color="#0065ff"/></linearGradient></defs><title>Flag</title><g id="Layer_2" data-name="Layer 2"><g id="Objects"><path class="cls-1" d="M25.65-2.08h0a5.2,5.2,0,0,1,5.2,5.2V192.36a0,0,0,0,1,0,0H20.45a0,0,0,0,1,0,0V3.12a5.2,5.2,0,0,1,5.2-5.2Z" transform="translate(20.71 -3.27) rotate(12.21)"/><path class="cls-2" d="M147,42.26,128.19,129.1c1.45-7.37-3.61-14.49-11-16.08L21,92.18,39.76,5.33,136,26.16C143.37,27.75,148.44,34.87,147,42.26Z"/><path class="cls-3" d="M171,88.17l-18.75,86.65c0,.05-74.93-16.12-74.93-16.12a12.87,12.87,0,0,1-9.88-15.27c1.5-7.05,8.75-11.33,15.81-9.81l28.6,6.19a13.67,13.67,0,0,0,16.3-10.71l10.38-48a.1.1,0,0,1,.12-.07S171.05,88.12,171,88.17Z"/><path class="cls-4" d="M128.19,129.1a13.67,13.67,0,0,1-16.3,10.71l-29.08-6.29a12.9,12.9,0,0,0-15.32,9.87l8.5-39.3L117.22,113C124.58,114.61,129.64,121.73,128.19,129.1Z"/><path class="cls-5" d="M87.87,85.46a.71.71,0,0,1-.52-.52l-5-19.69a34.76,34.76,0,0,1,9.26-33.14.78.78,0,0,1,.73-.29.58.58,0,0,1,.43.46l14.39,56.31a.7.7,0,0,1-.82.86Zm-32.39-7a.65.65,0,0,1-.29-.14.7.7,0,0,1-.11-1S69.34,59.66,74,53.74a.62.62,0,0,1,.61-.29.93.93,0,0,1,.56.45c5.14,8.6,4.87,21.28-.61,28.28a.65.65,0,0,1-.66.25Z"/></g></g></svg>